PathFileType	4	(X/Y/Z)	C:/Users/opensim2020/Desktop/walking_exp_matlab/subject01_walking15_straight_03.trc	
DataRate	CameraRate	NumFrames	NumMarkers	Units	OrigDataRate	OrigDataStartFrame	OrigNumFrames	
100.00	100.00	4	43	mm	100.00	1636	145	
Frame#	Time	LFHD			RFHD			LBHD			RBHD			C7			T10			CLAV			STRN			RBAK			LSHO			LUPA			LELB			LFRM			LWRA			LWRB			LFIN			RSHO			RUPA			RELB			RFRM			RWRA			RWRB			RFIN			LASI			RASI			LPSI			RPSI			LTHI			LKNE			LTIB			LANK			LHEE			LTOE			RTHI			RKNE			RTIB			RANK			RHEE			RTOE			*39			*40			*41			*42			
		X1	Y1	Z1	X2	Y2	Z2	X3	Y3	Z3	X4	Y4	Z4	X5	Y5	Z5	X6	Y6	Z6	X7	Y7	Z7	X8	Y8	Z8	X9	Y9	Z9	X10	Y10	Z10	X11	Y11	Z11	X12	Y12	Z12	X13	Y13	Z13	X14	Y14	Z14	X15	Y15	Z15	X16	Y16	Z16	X17	Y17	Z17	X18	Y18	Z18	X19	Y19	Z19	X20	Y20	Z20	X21	Y21	Z21	X22	Y22	Z22	X23	Y23	Z23	X24	Y24	Z24	X25	Y25	Z25	X26	Y26	Z26	X27	Y27	Z27	X28	Y28	Z28	X29	Y29	Z29	X30	Y30	Z30	X31	Y31	Z31	X32	Y32	Z32	X33	Y33	Z33	X34	Y34	Z34	X35	Y35	Z35	X36	Y36	Z36	X37	Y37	Z37	X38	Y38	Z38	X39	Y39	Z39	X40	Y40	Z40	X41	Y41	Z41	X42	Y42	Z42	X43	Y43	Z43	

37	0.360	1391.00183	-342.78152	1646.71863	1499.44971	-312.61069	1659.90540	1419.94409	-458.44492	1612.79065	1535.54333	-429.17154	1625.36902	1465.81165	-502.24969	1424.84521	1497.25671	-560.93097	1135.53809	1473.55981	-361.93112	1348.04456	1481.11084	-332.52939	1189.57397	1555.29944	-570.74554	1244.50867	1311.36853	-417.05499	1373.55994	1234.55981	-454.05927	1190.08203	1236.04846	-481.96857	1041.14026	1213.96375	-451.19058	930.83734	1234.85681	-383.34091	809.52869	1209.84338	-437.47562	809.34027	1198.02869	-394.52295	738.35223	1620.48962	-421.73245	1399.90906	1727.36047	-523.24713	1224.49133	1741.42407	-539.75946	1098.02051	1774.54883	-501.12466	980.44641	1755.31531	-405.70090	876.06177	1795.65771	-447.06686	870.68140	1796.82373	-396.24893	801.39069	1397.70728	-394.57513	928.35706	1614.51465	-399.08221	924.06500	1450.20459	-581.94025	934.75745	1594.39819	-580.15381	933.93408	1345.99121	-382.56641	595.90784	1369.09912	-370.50168	461.81003	1369.07068	-427.53937	279.65204	1431.56116	-467.99084	67.68822	1488.15149	-510.56064	38.81382	1415.82568	-324.52075	34.79478	1690.23816	-399.32617	592.26233	1681.78748	-371.71225	438.14059	1677.64502	-522.41675	350.00482	1628.61084	-678.98962	218.55493	1571.03040	-733.31665	225.22710	1642.61633	-631.38312	84.23379	1476.16833	-324.07285	1692.93433	-3102.03931	1973.16223	1023.60242	-3140.64819	2012.52441	1022.06805			 
38	0.370	1390.44922	-330.50687	1647.51892	1498.91125	-300.08624	1660.72168	1419.57117	-446.27444	1613.83826	1535.12781	-416.81863	1626.40210	1465.49316	-490.47427	1426.01929	1496.58801	-549.31494	1136.62830	1473.00391	-350.27332	1349.05737	1480.42285	-320.97726	1190.53662	1554.81311	-559.29395	1245.73132	1310.91577	-405.34348	1375.02173	1233.85901	-440.97757	1191.47534	1235.05457	-466.53381	1041.61218	1213.87952	-431.18512	932.16406	1236.39465	-358.08459	814.44489	1210.86560	-412.31598	811.36182	1199.51733	-366.03543	742.62408	1620.06104	-410.04901	1400.60327	1726.46606	-512.52850	1225.49036	1739.91125	-530.00177	1099.16089	1773.32373	-495.39206	980.51617	1754.43713	-403.86826	872.48438	1794.78088	-445.45554	868.86310	1795.95300	-397.52924	797.42786	1396.67517	-383.47284	929.07904	1613.23328	-387.32596	925.69336	1450.09192	-570.54187	936.03973	1594.29822	-567.99274	935.58893	1346.40784	-375.77405	595.48938	1369.50256	-366.37759	461.26065	1369.51929	-426.06512	279.86154	1431.82092	-467.61499	67.93264	1488.17749	-510.42090	39.12201	1415.68994	-324.21939	34.59274	1688.29724	-380.30527	595.18597	1679.50403	-349.01447	441.82880	1675.41272	-497.06042	349.11185	1626.66809	-649.90741	212.86977	1569.65161	-705.13019	217.34894	1640.01050	-595.44940	80.97934	1475.54358	-311.67953	1693.72595	-3101.98389	1973.09119	1023.62036	-3140.77295	2012.56079	1021.97552			 
39	0.380	1390.07349	-318.40598	1648.27832	1498.47510	-287.78259	1661.42603	1419.30945	-434.11011	1614.73730	1534.86633	-404.47223	1627.27478	1465.01318	-478.64252	1426.86853	1495.77539	-537.66132	1137.60632	1472.54761	-338.60934	1349.93933	1479.75452	-309.42349	1191.35559	1554.26038	-547.75885	1246.80945	1310.60583	-393.52060	1376.36670	1233.04346	-428.07233	1192.83228	1234.00769	-451.07361	1042.10986	1213.86377	-411.32071	933.63629	1237.28833	-333.03241	819.63135	1212.18774	-386.48035	813.77600	1200.96619	-337.64087	747.37317	1619.70056	-398.34088	1401.20166	1725.59692	-501.83588	1226.33179	1738.44519	-520.20129	1100.20605	1772.04700	-489.69025	980.60718	1753.77759	-402.19138	869.20789	1793.93481	-444.09042	867.19604	1795.25659	-399.09308	793.81055	1395.47461	-372.11252	929.74457	1612.07019	-375.68274	927.24615	1449.90149	-559.02765	937.10571	1594.42944	-556.39447	937.60449	1346.84412	-369.27979	594.99445	1369.92627	-362.28647	460.57507	1369.80603	-424.33524	279.95016	1432.20984	-466.50613	67.91345	1488.23999	-510.27344	39.50760	1415.52271	-323.59229	34.27660	1686.60168	-361.48911	598.16821	1677.01990	-326.59354	445.39651	1673.18616	-471.72754	347.62198	1624.80884	-620.12585	206.28104	1567.86267	-675.89923	208.21149	1637.90613	-558.98492	77.66471	1475.12488	-299.35617	1694.47437	-3102.10669	1973.13733	1023.48157	-3140.65234	2012.50293	1022.14423			 
40	0.390	1389.81030	-306.37784	1648.87793	1498.06604	-275.77902	1661.93567	1419.19092	-422.06918	1615.57739	1534.68713	-392.27002	1627.99438	1464.66895	-466.83911	1427.69556	1494.90454	-526.04102	1138.45996	1472.14478	-326.92560	1350.75378	1479.23499	-297.77109	1192.13452	1553.60083	-536.18164	1247.71472	1310.26746	-381.78418	1377.62695	1232.26917	-415.24481	1194.07153	1232.99744	-435.98532	1042.59290	1213.87097	-391.41824	935.31061	1238.68469	-308.53912	825.12140	1213.27795	-361.23813	816.72113	1202.59851	-309.29050	752.74762	1619.38293	-386.70123	1401.72607	1724.80750	-491.08530	1227.11890	1736.99792	-510.36566	1101.10657	1770.89026	-484.05084	980.86499	1753.21997	-400.71323	866.10339	1793.14197	-442.88199	865.73328	1794.78674	-400.65009	790.65680	1395.03015	-361.43616	930.16217	1611.06030	-363.91174	928.77460	1449.66919	-547.42303	938.01025	1594.28259	-544.54926	938.88916	1347.24072	-362.80453	594.52930	1370.37842	-358.31287	459.90930	1369.90881	-422.12668	279.88022	1432.56079	-465.59238	68.10594	1488.31519	-510.02090	39.92181	1415.38708	-323.04575	33.87443	1684.89392	-342.79004	601.03589	1674.64478	-304.55359	448.91678	1671.41138	-446.13629	345.43423	1622.88171	-589.76917	198.84973	1566.20081	-645.92267	197.89256	1636.36658	-521.83411	74.16451	1474.86060	-287.12350	1695.06409	-3101.98340	1973.12537	1023.55908	-3140.64673	2012.55005	1022.11206			 
